<?xml version="1.0" encoding="UTF-8"?>
<svg id="Capa_1" data-name="Capa 1" xmlns="http://www.w3.org/2000/svg" xmlns:xlink="http://www.w3.org/1999/xlink" viewBox="0 0 272.74 229.46">
  <defs>
    <style>
      .cls-1 {
        fill: url(#Degradado_sin_nombre_11);
      }

      .cls-2 {
        fill: #1d1d1b;
      }
    </style>
    <linearGradient id="Degradado_sin_nombre_11" data-name="Degradado sin nombre 11" x1="136.37" y1="34.03" x2="136.37" y2="182.32" gradientUnits="userSpaceOnUse">
      <stop offset="0" stop-color="#ddc672"/>
      <stop offset="1" stop-color="#978338"/>
    </linearGradient>
  </defs>
  <path class="cls-1" d="M172.96,56.72l81.73-38.08c1.92,1.77,4.47,2.87,7.29,2.87,5.93,0,10.76-4.83,10.76-10.76s-4.83-10.76-10.76-10.76-10.76,4.83-10.76,10.76c0,.25.02.5.04.75l-83.84,39.06-18.12,30.21,10.76,19.73-23.69,26.41-23.69-26.41,10.76-19.73-18.12-30.21L21.48,11.51c.02-.25.04-.5.04-.75C21.51,4.83,16.69,0,10.76,0S0,4.83,0,10.76s4.83,10.76,10.76,10.76c2.81,0,5.37-1.09,7.29-2.87l81.73,38.08,14.54,24.24-1.17,2.14L29.76,44.26c0-.17.03-.33.03-.5,0-5.93-4.83-10.76-10.76-10.76s-10.76,4.83-10.76,10.76,4.83,10.76,10.76,10.76c2.9,0,5.53-1.16,7.47-3.04l82.85,38.6-8.24,15.11-56.76-26.44c0-.17.03-.33.03-.5,0-5.93-4.83-10.76-10.76-10.76s-10.76,4.83-10.76,10.76,4.83,10.76,10.76,10.76c2.9,0,5.53-1.16,7.47-3.04l56.22,26.19-28.29,51.87h-10.02v7.92h28.71v-7.92h-9.66l5.92-10.85,40.25-27.95,12.16,13.56,12.19-13.59,40.18,27.9,5.97,10.94h-9.66v7.92h28.71v-7.92h-10.02l-28.29-51.87,56.22-26.19c1.94,1.87,4.57,3.04,7.47,3.04,5.93,0,10.76-4.83,10.76-10.76s-4.83-10.76-10.76-10.76-10.76,4.83-10.76,10.76c0,.17.02.34.03.5l-56.76,26.44-8.24-15.11,82.85-38.6c1.94,1.88,4.57,3.04,7.47,3.04,5.93,0,10.76-4.83,10.76-10.76s-4.83-10.76-10.76-10.76-10.76,4.83-10.76,10.76c0,.17.02.33.03.5l-83.39,38.85-1.17-2.14,14.54-24.24ZM261.98,7.92c1.56,0,2.84,1.27,2.84,2.84s-1.27,2.84-2.84,2.84-2.84-1.27-2.84-2.84,1.27-2.84,2.84-2.84ZM10.76,13.59c-1.56,0-2.84-1.27-2.84-2.84s1.27-2.84,2.84-2.84,2.84,1.27,2.84,2.84-1.27,2.84-2.84,2.84ZM19.03,46.59c-1.56,0-2.84-1.27-2.84-2.84s1.27-2.84,2.84-2.84,2.84,1.27,2.84,2.84-1.27,2.84-2.84,2.84ZM33.62,81.08c-1.56,0-2.84-1.27-2.84-2.84s1.27-2.84,2.84-2.84,2.84,1.27,2.84,2.84-1.27,2.84-2.84,2.84ZM92.42,137.65l16.24-29.77,10.22,11.4-26.46,18.38ZM239.12,75.4c1.56,0,2.84,1.27,2.84,2.84s-1.27,2.84-2.84,2.84-2.84-1.27-2.84-2.84,1.27-2.84,2.84-2.84ZM253.7,40.92c1.56,0,2.84,1.27,2.84,2.84s-1.27,2.84-2.84,2.84-2.84-1.27-2.84-2.84,1.27-2.84,2.84-2.84ZM153.88,119.24l10.19-11.36,16.19,29.69-26.39-18.32Z"/>
  <g>
    <g>
      <path class="cls-2" d="M79.4,214.32h-3.68v15.13h-7.57v-37.83h25.22c8.41,0,12.61,3.78,12.61,11.35s-4.2,11.35-12.61,11.35h-2.35l17.76,15.13h-11.63l-17.76-15.13ZM92.11,206.76c4.2,0,6.31-1.26,6.31-3.78s-2.1-3.78-6.31-3.78h-16.39v7.57h16.39Z"/>
      <path class="cls-2" d="M140.15,211.93v17.53h-7.57v-17.53l-16.97-20.3h9.89l10.87,12.99,10.87-12.99h9.89l-16.97,20.3Z"/>
      <path class="cls-2" d="M174.32,206.76h30.27v7.57h-30.27v15.13h-7.57v-37.83h37.83v7.57h-30.27v7.57Z"/>
      <path class="cls-2" d="M224.89,203.1v26.36h-7.57v-37.83h7.72l22.55,26.36v-26.36h7.57v37.83h-7.69l-22.57-26.36Z"/>
    </g>
    <path class="cls-2" d="M31.23,199.19h24.19v-7.57h-25.22c-8.41,0-12.61,4.2-12.61,12.61v12.61c0,8.41,4.2,12.61,12.61,12.61h25.22v-22.63h-4.77s-14.15,0-14.15,0v7.57h11.35v7.51h-16.6c-4.07,0-6.1-2.03-6.1-6.08v-10.57c0-4.04,2.03-6.05,6.08-6.05Z"/>
  </g>
</svg>